<?xml version="1.0"?>
<svg xmlns="http://www.w3.org/2000/svg" height="512px" viewBox="0 0 512 512" width="512px"><g><path d="m247.378906 346.835938h34.742188c4.164062 0 7.535156-3.371094 7.535156-7.53125 0-4.164063-3.371094-7.535157-7.535156-7.535157h-34.742188c-4.160156 0-7.53125 3.371094-7.53125 7.535157 0 4.160156 3.371094 7.53125 7.53125 7.53125zm0 0" data-original="#000000" class="active-path" data-old_color="#000000" fill="#FFFFFF"/><path d="m312.296875 346.835938h21.210937c4.160157 0 7.53125-3.371094 7.53125-7.53125 0-4.164063-3.371093-7.535157-7.53125-7.535157h-21.210937c-4.160156 0-7.53125 3.371094-7.53125 7.535157 0 4.160156 3.371094 7.53125 7.53125 7.53125zm0 0" data-original="#000000" class="active-path" data-old_color="#000000" fill="#FFFFFF"/><path d="m359.066406 346.835938h28.316406c4.160157 0 7.535157-3.371094 7.535157-7.53125 0-4.164063-3.375-7.535157-7.535157-7.535157h-28.316406c-4.160156 0-7.53125 3.371094-7.53125 7.535157 0 4.160156 3.371094 7.53125 7.53125 7.53125zm0 0" data-original="#000000" class="active-path" data-old_color="#000000" fill="#FFFFFF"/><path d="m247.378906 381.292969h25.664063c4.160156 0 7.535156-3.371094 7.535156-7.53125 0-4.164063-3.375-7.535157-7.535156-7.535157h-25.664063c-4.160156 0-7.53125 3.371094-7.53125 7.535157 0 4.160156 3.371094 7.53125 7.53125 7.53125zm0 0" data-original="#000000" class="active-path" data-old_color="#000000" fill="#FFFFFF"/><path d="m296.328125 381.292969h51.125c4.164063 0 7.535156-3.371094 7.535156-7.53125 0-4.164063-3.371093-7.535157-7.535156-7.535157h-51.125c-4.160156 0-7.53125 3.371094-7.53125 7.535157 0 4.160156 3.371094 7.53125 7.53125 7.53125zm0 0" data-original="#000000" class="active-path" data-old_color="#000000" fill="#FFFFFF"/><path d="m387.382812 366.226562h-14.15625c-4.160156 0-7.535156 3.371094-7.535156 7.535157 0 4.160156 3.375 7.53125 7.535156 7.53125h14.15625c4.160157 0 7.535157-3.371094 7.535157-7.53125 0-4.164063-3.375-7.535157-7.535157-7.535157zm0 0" data-original="#000000" class="active-path" data-old_color="#000000" fill="#FFFFFF"/><path d="m129.375 305.804688c-7.886719 6.050781-12.992188 15.550781-12.992188 26.234374v33.78125c0 8.636719 7.027344 15.660157 15.664063 15.660157h39.414063c2.710937 12.75 14.050781 22.339843 27.597656 22.339843 15.558594 0 28.214844-12.65625 28.214844-28.214843 0-14.46875-10.945313-26.417969-24.992188-28.027344v-15.539063c0-10.683593-5.089844-20.195312-12.972656-26.25 5.800781-6.847656 9.308594-15.695312 9.308594-25.355468 0-21.660156-17.621094-39.285156-39.28125-39.285156-21.664063 0-39.289063 17.625-39.289063 39.285156 0 9.664062 3.515625 18.519531 9.328125 25.371094zm69.683594 56.652343c7.25 0 13.148437 5.898438 13.148437 13.148438s-5.898437 13.148437-13.148437 13.148437c-7.253906 0-13.152344-5.898437-13.152344-13.148437s5.898438-13.148438 13.152344-13.148438zm-39.722656-106.242187c13.351562 0 24.214843 10.863281 24.214843 24.21875 0 13.351562-10.863281 24.214844-24.214843 24.214844-13.355469 0-24.222657-10.863282-24.222657-24.214844 0-13.355469 10.867188-24.21875 24.222657-24.21875zm-27.882813 75.824218c0-7.265624 4.328125-13.519531 10.535156-16.367187 5.238281 2.585937 11.121094 4.046875 17.347657 4.046875 6.222656 0 12.105468-1.460938 17.34375-4.046875 6.207031 2.847656 10.535156 9.105469 10.535156 16.367187v17.96875c-6.914063 3.210938-12.316406 9.136719-14.828125 16.40625h-40.339844c-.328125 0-.59375-.265624-.59375-.589843zm0 0" data-original="#000000" class="active-path" data-old_color="#000000" fill="#FFFFFF"/><path d="m498.742188 427.476562h-16.542969v-269.566406c0-16.554687-13.46875-30.023437-30.023438-30.023437h-61.207031v-106.402344c0-11.847656-9.636719-21.484375-21.484375-21.484375h-227.667969c-11.84375 0-21.484375 9.636719-21.484375 21.484375v17.816406c0 4.136719 3.355469 7.488281 7.492188 7.488281s7.488281-3.351562 7.488281-7.488281v-17.816406c0-3.585937 2.917969-6.503906 6.503906-6.503906h227.667969c3.589844 0 6.507813 2.917969 6.507813 6.503906v165.207031c0 3.585938-2.917969 6.503906-6.507813 6.503906h-31.714844c-7.652343 0-14.78125 4.117188-18.605469 10.742188l-10.765624 18.648438-10.769532-18.648438c-3.824218-6.625-10.953125-10.742188-18.605468-10.742188h-137.207032c-3.585937 0-6.503906-2.917968-6.503906-6.503906v-112.40625c0-4.136718-3.351562-7.488281-7.492188-7.488281-4.136718 0-7.488281 3.351563-7.488281 7.488281v53.601563h-61.210937c-16.550782 0-30.019532 13.46875-30.019532 30.023437v269.566406h-16.546874c-6.921876 0-12.554688 5.632813-12.554688 12.554688v39.929688c0 17.664062 14.371094 32.039062 32.039062 32.039062h447.222657c17.664062 0 32.039062-14.375 32.039062-32.039062v-39.929688c0-6.921875-5.632812-12.554688-12.558593-12.554688zm-356.925782-219.300781h137.207032c2.316406 0 4.472656 1.246094 5.632812 3.25l13.289062 23.019531c2.148438 3.71875 6.152344 6.03125 10.449219 6.03125s8.300781-2.308593 10.453125-6.03125l13.289063-23.019531c1.15625-2.003906 3.316406-3.25 5.632812-3.25h31.714844c11.847656 0 21.484375-9.640625 21.484375-21.484375v-8.234375h35.980469c.414062 0 .75.335938.75.75v130.296875c0 4.160156 3.371093 7.535156 7.53125 7.535156 4.164062 0 7.535156-3.375 7.535156-7.535156v-130.296875c0-8.722656-7.09375-15.816406-15.816406-15.816406h-35.980469v-20.4375h61.207031c8.246094 0 14.957031 6.710937 14.957031 14.957031v269.5625h-24.367187v-82.8125c0-4.160156-3.375-7.535156-7.535156-7.535156-4.160157 0-7.53125 3.371094-7.53125 7.535156v82.8125h-344.097657v-248.265625c0-.414062.335938-.75.75-.75h35.980469v8.234375c0 11.84375 9.636719 21.484375 21.484375 21.484375zm185.691406 234.367188-6.472656 14.816406h-130.769531l-6.472656-14.816406zm-283.339843-284.632813c0-8.246094 6.710937-14.953125 14.953125-14.953125h61.210937v20.433594h-35.980469c-8.71875 0-15.816406 7.09375-15.816406 15.816406v248.269531h-24.367187zm452.066406 322.050782c0 9.355468-7.617187 16.972656-16.972656 16.972656h-447.222657c-9.359374 0-16.972656-7.617188-16.972656-16.972656v-37.417969h152.28125l9.769532 22.355469c1.996093 4.574218 6.515624 7.527343 11.503906 7.527343h134.054687c4.992188 0 9.507813-2.953125 11.507813-7.527343l9.765625-22.355469h152.28125v37.417969zm0 0" data-original="#000000" class="active-path" data-old_color="#000000" fill="#FFFFFF"/><path d="m221.902344 104.523438c0-12.796876-10.410156-23.207032-23.207032-23.207032-12.792968 0-23.203124 10.410156-23.203124 23.207032 0 12.796874 10.410156 23.207031 23.203124 23.207031 12.796876 0 23.207032-10.410157 23.207032-23.207031zm-31.429688 0c0-4.535157 3.6875-8.226563 8.226563-8.226563 4.535156 0 8.226562 3.691406 8.226562 8.226563 0 4.535156-3.691406 8.226562-8.226562 8.226562-4.539063 0-8.226563-3.691406-8.226563-8.226562zm0 0" data-original="#000000" class="active-path" data-old_color="#000000" fill="#FFFFFF"/><path d="m278.855469 104.523438c0-12.796876-10.410157-23.207032-23.203125-23.207032-12.796875 0-23.207032 10.410156-23.207032 23.207032 0 12.796874 10.410157 23.207031 23.207032 23.207031 12.792968 0 23.203125-10.410157 23.203125-23.207031zm-31.429688 0c0-4.535157 3.6875-8.226563 8.226563-8.226563 4.535156 0 8.222656 3.691406 8.222656 8.226563 0 4.535156-3.6875 8.226562-8.222656 8.226562-4.539063 0-8.226563-3.691406-8.226563-8.226562zm0 0" data-original="#000000" class="active-path" data-old_color="#000000" fill="#FFFFFF"/><path d="m312.605469 127.734375c12.792969 0 23.199219-10.414063 23.199219-23.210937 0-11.558594-8.625-21.4375-19.984376-22.972657-1.046874-.152343-2.128906-.226562-3.214843-.226562-12.796875 0-23.210938 10.40625-23.210938 23.199219 0 3.570312.789063 6.988281 2.332031 10.136718 3.863282 7.941406 12.058594 13.074219 20.878907 13.074219zm0-31.433594c.363281 0 .730469.027344 1.136719.085938 4.039062.542969 7.082031 4.042969 7.082031 8.136719 0 4.539062-3.6875 8.230468-8.21875 8.230468-3.175781 0-6.015625-1.78125-7.417969-4.667968-.539062-1.097657-.8125-2.300782-.8125-3.5625 0-4.535157 3.691406-8.222657 8.230469-8.222657zm0 0" data-original="#000000" class="active-path" data-old_color="#000000" fill="#FFFFFF"/></g> </svg>
