<?xml version="1.0"?>
<svg xmlns="http://www.w3.org/2000/svg" height="512px" viewBox="0 -6 512 512" width="512px" class=""><g><path d="m107.882812 155.859375c0 11.292969 9.171876 20.484375 20.441407 20.484375 20.585937 0 27-28.179688 12.746093-28.179688-4.25 0-7.695312 3.445313-7.695312 7.695313 0 2.808594-2.265625 5.09375-5.050781 5.09375-2.785157 0-5.050781-2.285156-5.050781-5.09375 0-4.25-3.445313-7.695313-7.695313-7.695313s-7.695313 3.445313-7.695313 7.695313zm0 0" data-original="#000000" class="active-path" data-old_color="#000000" fill="#FFFFFF"/><path d="m161.898438 129.507812c0 4.632813-3.753907 8.386719-8.382813 8.386719-4.632813 0-8.386719-3.753906-8.386719-8.386719 0-4.628906 3.753906-8.382812 8.386719-8.382812 4.628906 0 8.382813 3.753906 8.382813 8.382812zm0 0" data-original="#000000" class="active-path" data-old_color="#000000" fill="#FFFFFF"/><path d="m111.519531 129.507812c0 4.632813-3.753906 8.386719-8.382812 8.386719-4.632813 0-8.386719-3.753906-8.386719-8.386719 0-4.628906 3.753906-8.382812 8.386719-8.382812 4.628906 0 8.382812 3.753906 8.382812 8.382812zm0 0" data-original="#000000" class="active-path" data-old_color="#000000" fill="#FFFFFF"/><path d="m40.238281 266.132812c0 12.351563 9.984375 22.363282 22.363281 22.363282h131.445313c12.332031 0 22.363281-10.03125 22.363281-22.363282 0-35.269531-24.34375-64.726562-57.167968-72.636718 10.503906-7.710938 20.246093-18.261719 24.566406-30.363282 15.113281.738282 27.875-11.367187 27.875-26.566406 0-13.414062-9.96875-24.53125-22.898438-26.339844 6.671875-2.1875 11.542969-8.996093 11.542969-17.039062v-40.765625c0-18.675781-15.945313-33.859375-35.554687-33.859375h-45.71875c-13.636719 0-25.867188 7.425781-31.800782 18.695312h-5.230468c-14.171876 0-25.691407 11.039063-25.691407 24.613282v20.078125c0 8.875 5.917969 16.449219 14.167969 19.25v8.785156c-14.179688.550781-25.539062 12.269531-25.539062 26.574219 0 15.105468 12.648437 27.289062 27.890624 26.5625 4.3125 12.105468 14.054688 22.660156 24.558594 30.371094-33.238281 8.007812-57.171875 37.859374-57.171875 72.640624zm145.917969-140.71875c5.683594.535157 10.136719 5.324219 10.136719 11.152344 0 5.820313-4.453125 10.621094-10.136719 11.15625zm-115.65625 22.296876c-5.683594-.535157-10.148438-5.335938-10.148438-11.152344 0-5.820313 4.464844-10.621094 10.148438-11.15625zm130.519531 118.421874c0 3.84375-3.125 6.972657-6.972656 6.972657h-58.027344v-66.296875h5.675781c32.660157 0 59.324219 26.390625 59.324219 59.324218zm-129.296875-184.183593v-20.078125c0-5.089844 4.617188-9.222656 10.300782-9.222656h4.769531c3.28125 0 5.390625 1.84375 9.070312-.21875 5.367188-2.972657 2.277344-8.105469 10.300781-14.210938 3.53125-2.6875 8.046876-4.265625 12.890626-4.265625h45.71875c11.113281 0 20.164062 8.277344 20.164062 18.46875 0 42.792969.335938 42.308594-.894531 43.175781-11.148438 0-10.574219.023438-13.277344-.042968-25.085937-.707032-47.546875-8.8125-60.527344-22.007813-4.640625-4.707031-12.667969-1.757813-13.164062 4.832031-.308594 4.269532-3.941407 8.597656-11.183594 8.597656h-8.320313c-3.222656 0-5.847656-2.253906-5.847656-5.027343zm15.53125 76.0625c-1.816406-5.394531-1.363281-3.667969-1.363281-55.640625 9.859375 0 17.320313-4.167969 22-10.582032 15.972656 11.75 38.148437 18.582032 62.875 19.15625 0 42.585938.457031 41.679688-1.363281 47.078126-5.996094 17.699218-31.871094 33.394531-41.90625 33.394531-8.355469-.949219-34.027344-15.039063-40.242188-33.40625zm-10.578125 62.796875c14.113281-11.9375 27.699219-14 43.953125-14v66.292968h-58.027344c-3.835937 0-6.972656-3.097656-6.972656-6.96875 0-17.496093 7.671875-34.015624 21.046875-45.324218zm0 0" data-original="#000000" class="active-path" data-old_color="#000000" fill="#FFFFFF"/><path d="m75.679688 257.644531h27.457031c4.25 0 7.695312-3.445312 7.695312-7.695312s-3.445312-7.695313-7.695312-7.695313h-27.457031c-4.246094 0-7.695313 3.445313-7.695313 7.695313s3.449219 7.695312 7.695313 7.695312zm0 0" data-original="#000000" class="active-path" data-old_color="#000000" fill="#FFFFFF"/><path d="m152.371094 257.644531h27.453125c4.25 0 7.695312-3.445312 7.695312-7.695312s-3.445312-7.695313-7.695312-7.695313h-27.453125c-4.25 0-7.695313 3.445313-7.695313 7.695313s3.445313 7.695312 7.695313 7.695312zm0 0" data-original="#000000" class="active-path" data-old_color="#000000" fill="#FFFFFF"/><path d="m260.328125 229.546875 58.980469-44.664063h131.21875c11.710937 0 21.230468-9.519531 21.230468-21.226562v-102.226562c0-11.707032-9.519531-21.230469-21.230468-21.230469h-199.433594c-11.707031 0-21.226562 9.523437-21.226562 21.230469v102.226562c0 11.707031 9.519531 21.226562 21.226562 21.226562h5.992188l-16.835938 26.011719c-8.457031 13.042969 7.714844 28.027344 20.078125 18.652344zm-2.59375-17.339844 17.6875-27.324219h18.386719zm-6.640625-42.714843c-3.210938 0-5.835938-2.613282-5.835938-5.835938v-102.226562c0-3.222657 2.625-5.839844 5.835938-5.839844h199.433594c3.222656 0 5.839844 2.617187 5.839844 5.839844v102.226562c0 3.222656-2.617188 5.835938-5.839844 5.835938-21.628906 0-177.570313 0-199.433594 0zm0 0" data-original="#000000" class="active-path" data-old_color="#000000" fill="#FFFFFF"/><path d="m434.140625 72.292969h-166.648437c-4.25 0-7.695313 3.445312-7.695313 7.695312s3.445313 7.695313 7.695313 7.695313h166.648437c4.25 0 7.695313-3.445313 7.695313-7.695313s-3.445313-7.695312-7.695313-7.695312zm0 0" data-original="#000000" class="active-path" data-old_color="#000000" fill="#FFFFFF"/><path d="m267.492188 120.238281h143.648437c4.25 0 7.695313-3.445312 7.695313-7.695312s-3.445313-7.695313-7.695313-7.695313h-143.648437c-4.25 0-7.695313 3.445313-7.695313 7.695313s3.445313 7.695312 7.695313 7.695312zm0 0" data-original="#000000" class="active-path" data-old_color="#000000" fill="#FFFFFF"/><path d="m434.140625 137.402344h-166.648437c-4.25 0-7.695313 3.445312-7.695313 7.695312s3.445313 7.695313 7.695313 7.695313h166.648437c4.25 0 7.695313-3.445313 7.695313-7.695313s-3.445313-7.695312-7.695313-7.695312zm0 0" data-original="#000000" class="active-path" data-old_color="#000000" fill="#FFFFFF"/><path d="m7.695312 207.058594c4.246094 0 7.695313-3.449219 7.695313-7.695313v-173.167969c0-5.960937 4.84375-10.804687 10.804687-10.804687h259.488282c4.246094 0 7.695312-3.449219 7.695312-7.695313 0-4.246093-3.449218-7.695312-7.695312-7.695312h-259.488282c-14.445312 0-26.195312 11.75-26.195312 26.195312v173.167969c0 4.246094 3.449219 7.695313 7.695312 7.695313zm0 0" data-original="#000000" class="active-path" data-old_color="#000000" fill="#FFFFFF"/><path d="m485.804688 0h-169.339844c-4.246094 0-7.695313 3.449219-7.695313 7.695312 0 4.246094 3.449219 7.695313 7.695313 7.695313h169.339844c5.960937 0 10.804687 4.84375 10.804687 10.804687v266.84375c-9.746094 0-468.785156 0-481.21875 0v-62.894531c0-4.25-3.449219-7.695312-7.695313-7.695312-4.246093 0-7.695312 3.445312-7.695312 7.695312v116.261719c0 14.445312 11.75 26.195312 26.195312 26.195312h183.859376l-14.644532 72.878907h-29.960937c-10.882813 0-19.75 8.867187-19.75 19.753906v15.390625c0 10.882812 8.867187 19.75 19.75 19.75h181.101562c10.882813 0 19.75-8.867188 19.75-19.75v-15.390625c0-10.886719-8.867187-19.753906-19.75-19.753906h-29.960937l-14.644532-72.878907h183.859376c14.445312 0 26.195312-11.75 26.195312-26.195312v-320.210938c0-14.445312-11.75-26.195312-26.195312-26.195312zm-139.253907 460.871094c2.398438 0 4.359375 1.960937 4.359375 4.363281v15.390625c0 2.398438-1.960937 4.359375-4.359375 4.359375h-181.101562c-2.398438 0-4.359375-1.960937-4.359375-4.359375v-15.390625c0-2.402344 1.960937-4.363281 4.359375-4.363281zm-135.441406-15.390625 14.644531-72.878907h60.492188l14.644531 72.878907zm285.5-99.074219c0 5.960938-4.84375 10.804688-10.804687 10.804688-4.648438 0-449.328126 0-459.609376 0-5.960937 0-10.804687-4.84375-10.804687-10.804688v-37.976562h481.21875zm0 0" data-original="#000000" class="active-path" data-old_color="#000000" fill="#FFFFFF"/><path d="m458.902344 352.953125c11.101562 0 20.136718-9.03125 20.136718-20.132813 0-11.105468-9.035156-20.136718-20.136718-20.136718-11.101563 0-20.136719 9.03125-20.136719 20.136718 0 11.101563 9.035156 20.132813 20.136719 20.132813zm0-24.878906c2.617187 0 4.746094 2.128906 4.746094 4.746093 0 2.613282-2.128907 4.742188-4.746094 4.742188-2.617188 0-4.746094-2.128906-4.746094-4.742188 0-2.617187 2.128906-4.746093 4.746094-4.746093zm0 0" data-original="#000000" class="active-path" data-old_color="#000000" fill="#FFFFFF"/><path d="m406.058594 352.953125c11.101562 0 20.144531-9.03125 20.144531-20.132813 0-11.101562-9.042969-20.140624-20.144531-20.140624-11.101563 0-20.140625 9.039062-20.140625 20.140624 0 11.101563 9.039062 20.132813 20.140625 20.132813zm0-24.882813c2.617187 0 4.753906 2.132813 4.753906 4.75 0 2.617188-2.136719 4.742188-4.753906 4.742188-2.613282 0-4.75-2.125-4.75-4.742188 0-2.617187 2.136718-4.75 4.75-4.75zm0 0" data-original="#000000" class="active-path" data-old_color="#000000" fill="#FFFFFF"/></g> </svg>
