<?xml version="1.0" encoding="utf-8"?>
<!-- Generator: Adobe Illustrator 23.0.2, SVG Export Plug-In . SVG Version: 6.00 Build 0)  -->
<svg version="1.1" id="Layer_1" xmlns="http://www.w3.org/2000/svg" xmlns:xlink="http://www.w3.org/1999/xlink" x="0px" y="0px"
	 viewBox="0 0 100 60" style="enable-background:new 0 0 100 60;" xml:space="preserve">
<style type="text/css">
	.st0{fill:#FC8900;}
	.st1{enable-background:new    ;}
	.st2{fill:#FFFFFF;}
	.st3{fill:none;}
</style>
<g>
	<path class="st0" d="M15.8,47.5c-12.4,0-22.4-9.9-22.4-22s10.1-22,22.4-22s22.4,9.9,22.4,22S28.1,47.5,15.8,47.5z"/>
	<path d="M15.8,4c12.1,0,21.9,9.6,21.9,21.5S27.9,47,15.8,47s-22-9.6-22-21.5S3.7,4,15.8,4 M15.8,3c-12.7,0-23,10.1-23,22.5
		S3.1,48,15.8,48s22.9-10.1,22.9-22.5S28.4,3,15.8,3L15.8,3z"/>
</g>
<g>
	<g class="st1">
		<path class="st2" d="M9,13.5h7.9c4.7,0,8.6,1.6,8.6,6.9c0,5.1-3.9,7.2-8.6,7.2h-2.9v7.9H9V13.5z M16.5,23.7c2.6,0,4.1-1.1,4.1-3.3
			c0-2.2-1.4-2.9-4.1-2.9h-2.5v6.2H16.5z M19.5,23.1l7.1,12.4H21L16,26.3L19.5,23.1z"/>
	</g>
</g>
<polygon class="st3" points="-69.8,27 -72.8,27 -72.8,27 "/>
<g>
	<g class="st1">
		<path class="st2" d="M43.8,28.4c0-5,3.4-7.9,7-7.9c3.6,0,7,2.9,7,7.9c0,5-3.4,7.9-7,7.9C47.2,36.3,43.8,33.4,43.8,28.4z
			 M53.7,28.4c0-2.6-1-4.3-2.9-4.3c-1.9,0-2.9,1.7-2.9,4.3c0,2.6,1,4.3,2.9,4.3C52.8,32.7,53.7,31,53.7,28.4z"/>
		<path class="st2" d="M64.9,34.3h-0.1l-0.3,1.6h-3.2V14.6h4.1v5.2l-0.2,2.4h0.1c1-1.1,2.4-1.7,3.8-1.7c3.4,0,5.6,3,5.6,7.6
			c0,5.2-2.9,8.2-6,8.2C67.4,36.3,66,35.6,64.9,34.3z M70.5,28.2c0-2.7-0.8-4.1-2.6-4.1c-0.9,0-1.7,0.4-2.5,1.4v6.1
			c0.8,0.7,1.7,1,2.4,1C69.2,32.6,70.5,31.3,70.5,28.2z"/>
		<path class="st2" d="M83.7,24.3h-5.6v-3.5h9.7v15.1h-4.1V24.3z M82.8,15.7c0-1.6,1.1-2.8,2.7-2.8c1.6,0,2.7,1.1,2.7,2.8
			c0,1.6-1.1,2.7-2.7,2.7C84,18.5,82.8,17.4,82.8,15.7z"/>
		<path class="st2" d="M97.5,29.7v-5.3H94V21l3.7-0.2l0.5-4.6h3.4v4.6h5.8v3.5h-5.8v5.3c0,2.3,0.9,3.2,2.9,3.2c1,0,1.9-0.2,2.7-0.5
			l0.7,3.2c-1.2,0.4-2.7,0.8-4.5,0.8C99.1,36.3,97.5,33.6,97.5,29.7z"/>
		<path class="st2" d="M111.1,31.7c0-3.4,2.6-5.1,9.1-5.5c-0.1-1.3-1.1-2.2-2.9-2.2c-1.3,0-2.7,0.6-4.2,1.4l-1.5-2.9
			c1.9-1.2,4.1-2,6.5-2c3.9,0,6.2,2.2,6.2,6.8v8.6h-3.3l-0.3-1.7h-0.1c-1.4,1.1-3.1,2.1-4.9,2.1C112.8,36.3,111.1,34.3,111.1,31.7z
			 M120.2,31.4v-2.5c-4.1,0.2-5.2,1.2-5.2,2.5c0,1,0.7,1.4,1.9,1.4C118.2,32.8,119.2,32.2,120.2,31.4z"/>
	</g>
</g>
</svg>
