<?xml version="1.0" encoding="utf-8"?>
<!-- Generator: Adobe Illustrator 23.0.2, SVG Export Plug-In . SVG Version: 6.00 Build 0)  -->
<svg version="1.1" id="Layer_1" xmlns="http://www.w3.org/2000/svg" xmlns:xlink="http://www.w3.org/1999/xlink" x="0px" y="0px"
	 viewBox="0 0 100 60" style="enable-background:new 0 0 100 60;" xml:space="preserve">
<style type="text/css">
	.st0{fill:#FC8900;}
	.st1{fill:#FFFFFF;}
	.st2{font-family:'MyriadPro-Regular';}
	.st3{font-size:19.9954px;}
	.st4{font-size:18.0038px;}
</style>
<g>
	<path class="st0" d="M29.4,40.2c-7.2,0-13.1-5.8-13.1-12.8s5.9-12.8,13.1-12.8s13.1,5.8,13.1,12.8S36.6,40.2,29.4,40.2z"/>
	<path d="M29.4,15C36.3,15,42,20.5,42,27.3s-5.7,12.3-12.6,12.3s-12.6-5.5-12.6-12.3S22.5,15,29.4,15 M29.4,14
		c-7.5,0-13.6,6-13.6,13.3s6.1,13.3,13.6,13.3S43,34.7,43,27.3S36.9,14,29.4,14L29.4,14z"/>
</g>
<text transform="matrix(1.0111 0 0 1 24.0229 33.2734)" class="st1 st2 st3">R</text>
<polygon style="fill:none;" points="-69.8,27 -72.8,27 -72.8,27 -69.8,27 "/>
<text transform="matrix(0.9169 0 0 1 45.2617 33.498)" class="st2 st4">obita</text>
</svg>
