<?xml version="1.0"?>
<svg xmlns="http://www.w3.org/2000/svg" id="Capa_1" enable-background="new 0 0 512 512" height="512px" viewBox="0 0 512 512" width="512px" class=""><g><path d="m497 .004h-482c-8.284 0-15 6.716-15 15v361.992c0 8.284 6.716 15 15 15h154.087v31.509c-34.194 6.967-60.003 37.271-60.003 73.491 0 8.284 6.716 15 15 15h263.833c8.284 0 15-6.716 15-15 0-36.13-25.681-66.371-59.747-73.437v-31.563h153.83c8.284 0 15-6.716 15-15v-361.992c0-8.285-6.716-15-15-15zm-367.277 294.003c-17.899 0-32.461-14.562-32.461-32.461s14.562-32.461 32.461-32.461 32.461 14.562 32.461 32.461-14.562 32.461-32.461 32.461zm-16.748 30.014h34.839c24.003 0 44.328 16.046 50.813 37.975h-136.465c6.484-21.929 26.81-37.975 50.813-37.975zm257.372 157.975h-228.693c6.191-17.461 22.874-30 42.43-30h143.833c19.557 0 36.239 12.539 42.43 30zm-57.177-60h-114.083v-30h114.083zm67.764-127.989c-17.899 0-32.461-14.562-32.461-32.461s14.562-32.461 32.461-32.461 32.461 14.562 32.461 32.461-14.562 32.461-32.461 32.461zm-16.748 30.014h34.839c24.003 0 44.329 16.046 50.813 37.975h-136.465c6.484-21.929 26.81-37.975 50.813-37.975zm117.814 37.975h-1.398c-5.168-28.186-24.611-51.43-50.54-61.934 8.345-10.619 13.333-23.994 13.333-38.516 0-34.441-28.02-62.461-62.461-62.461s-62.461 28.02-62.461 62.461c0 14.71 5.115 28.244 13.655 38.928-25.419 10.695-44.419 33.706-49.519 61.522h-53.217c-5.168-28.186-24.611-51.43-50.54-61.934 8.345-10.619 13.333-23.994 13.333-38.516 0-34.441-28.02-62.461-62.461-62.461s-62.461 28.02-62.461 62.461c0 14.71 5.115 28.244 13.655 38.928-25.42 10.695-44.419 33.706-49.519 61.523h-1.399v-331.993h452z" data-original="#000000" class="active-path" data-old_color="#000000" fill="#FFFFFF"/><path d="m102.844 159.085h39.901l39.598 39.597c2.929 2.929 6.768 4.393 10.606 4.393s7.678-1.464 10.606-4.393l39.598-39.597h23.451l39.597 39.597c2.813 2.813 6.628 4.394 10.606 4.394s7.794-1.58 10.606-4.393l39.598-39.597h39.901c8.284 0 15-6.716 15-15v-69.082c0-8.284-6.716-15-15-15h-304.068c-8.284 0-15 6.716-15 15v69.081c0 8.284 6.716 15 15 15zm15-69.081h274.068v39.081h-31.114c-3.979 0-7.794 1.58-10.606 4.393l-33.385 33.384-33.383-33.384c-2.813-2.813-6.629-4.393-10.607-4.393h-35.877c-3.978 0-7.793 1.58-10.606 4.393l-33.384 33.384-33.384-33.384c-2.813-2.813-6.628-4.393-10.606-4.393h-31.114v-39.081z" data-original="#000000" class="active-path" data-old_color="#000000" fill="#FFFFFF"/></g> </svg>
