<?xml version="1.0"?>
<svg xmlns="http://www.w3.org/2000/svg" xmlns:xlink="http://www.w3.org/1999/xlink" version="1.1" id="Capa_1" x="0px" y="0px" viewBox="0 0 512.001 512.001" style="enable-background:new 0 0 512.001 512.001;" xml:space="preserve" width="512px" height="512px"><g><g>
	<g>
		<path d="M71.934,368.373c-39.598,0-71.814,32.216-71.814,71.814s32.216,71.814,71.814,71.814    c39.598,0,71.814-32.216,71.814-71.814C143.748,400.589,111.532,368.373,71.934,368.373z" data-original="#000000" class="active-path" data-old_color="#000000" fill="#F07500"/>
	</g>
</g><g>
	<g>
		<path d="M255.403,256.568c-49.081-49.081-114.339-76.111-183.75-76.111c-8.282,0-14.997,6.715-14.997,14.997    s6.715,14.997,14.997,14.997c61.4,0,119.125,23.91,162.541,67.327c43.417,43.416,67.327,101.141,67.327,162.541    c0,8.282,6.715,14.997,14.997,14.997s14.997-6.715,14.997-14.997C331.514,370.907,304.484,305.65,255.403,256.568z" data-original="#000000" class="active-path" data-old_color="#000000" fill="#F07500"/>
	</g>
</g><g>
	<g>
		<path d="M71.907,273.368c-8.282,0-14.997,6.715-14.997,14.997s6.715,14.997,14.997,14.997c75.46,0,136.852,61.391,136.852,136.852    c0,8.282,6.715,14.997,14.997,14.997c8.282,0,14.997-6.715,14.997-14.997C238.753,348.216,163.906,273.368,71.907,273.368z" data-original="#000000" class="active-path" data-old_color="#000000" fill="#F07500"/>
	</g>
</g><g>
	<g>
		<path d="M393.89,303.478c-17.627-41.68-42.861-79.109-75-111.247c-32.139-32.139-69.568-57.373-111.247-75.003    c-43.159-18.254-88.997-27.511-136.241-27.511c-8.282,0-14.997,6.715-14.997,14.997s6.715,14.997,14.997,14.997    c85.477,0,165.837,33.287,226.278,93.728c60.441,60.441,93.728,140.802,93.728,226.278c0,8.282,6.715,14.997,14.997,14.997    s14.997-6.715,14.997-14.997C421.402,392.476,412.145,346.638,393.89,303.478z" data-original="#000000" class="active-path" data-old_color="#000000" fill="#F07500"/>
	</g>
</g><g>
	<g>
		<path d="M477.286,268.821c-22.17-52.415-53.904-99.485-94.322-139.903C342.546,88.5,295.476,56.765,243.061,34.596    C188.788,11.64,131.143,0,71.729,0c-8.282,0-14.997,6.715-14.997,14.997c0,8.282,6.715,14.997,14.997,14.997    c55.377,0,109.091,10.843,159.648,32.226c48.84,20.657,92.705,50.233,130.378,87.906s67.249,81.539,87.906,130.378    c21.384,50.557,32.226,104.271,32.226,159.648c0,8.282,6.715,14.997,14.997,14.997c8.282,0,14.997-6.715,14.997-14.997    C511.881,380.739,500.242,323.095,477.286,268.821z" data-original="#000000" class="active-path" data-old_color="#000000" fill="#F07500"/>
	</g>
</g></g> </svg>
