<?xml version="1.0"?>
<svg xmlns="http://www.w3.org/2000/svg" xmlns:xlink="http://www.w3.org/1999/xlink" version="1.1" id="Capa_1" x="0px" y="0px" viewBox="0 0 487.886 487.886" style="enable-background:new 0 0 487.886 487.886;" xml:space="preserve" width="512px" height="512px" class=""><g><path style="fill:#000000" d="M89.939,465.765l172.736-172.744c12.935-12.934,28.215-23.287,45.024-30.504l17.136-7.352  c-15.593-5.523-29.79-14.385-41.6-25.968l-24.384-24.44c-11.683-11.919-20.588-26.272-26.08-42.032l-7.472,17.392  c-7.216,16.805-17.565,32.083-30.496,45.016L22.051,397.877c-18.747,18.747-18.747,49.141,0,67.888S71.192,484.511,89.939,465.765  L89.939,465.765z M45.987,419.205c6.247-6.249,16.378-6.251,22.627-0.003c6.249,6.247,6.251,16.378,0.003,22.627  s-16.378,6.251-22.627,0.003c-0.001-0.001-0.002-0.002-0.003-0.003C39.741,435.581,39.741,425.453,45.987,419.205z" data-original="#BEBEC2" class="" data-old_color="#BEBEC2"/><g>
	<circle style="fill:#000000" cx="57.299" cy="430.517" r="16" data-original="#E7E7E8" class="" data-old_color="#E7E7E8"/>
	<path style="fill:#000000" d="M257.299,46.517c-41.918,37.7-45.337,102.243-7.637,144.161c1.204,1.339,2.444,2.646,3.717,3.919   l40.04,40c37.49,37.487,98.27,37.487,135.76,0l12.12-12.08l36.8-73.6c2.049-4.086,2.247-8.854,0.544-13.096l-8.8-22.064   c-1.642-4.102-6.298-6.096-10.4-4.454c-1.003,0.402-1.915,1.003-2.68,1.766l-56.8,56.8c-12.496,12.492-32.752,12.492-45.248,0   l-34.752-34.752c-12.492-12.496-12.492-32.752,0-45.248l56.8-56.8c3.122-3.126,3.118-8.192-0.008-11.314   c-0.765-0.764-1.677-1.365-2.68-1.766l-22.4-8.96c-4.051-1.62-8.588-1.516-12.56,0.288L257.299,46.517z" data-original="#E7E7E8" class="" data-old_color="#E7E7E8"/>
</g><g>
	<path style="fill:#F07500" d="M471.547,100.669l-2.6-2.6c-3.124-3.123-8.188-3.123-11.312,0l-56.568,56.568   c-15.619,15.623-40.946,15.626-56.569,0.007c-0.002-0.002-0.005-0.005-0.007-0.007l-11.312-11.32   c-15.623-15.619-15.626-40.946-0.007-56.569c0.003-0.002,0.005-0.005,0.007-0.007l56.576-56.568c0.672-0.68,1.215-1.477,1.6-2.352   c0.048-0.104,0.152-0.184,0.192-0.288c0.206-0.627,0.332-1.278,0.376-1.936c0.096-0.352,0.168-0.71,0.216-1.072   c-0.039-0.294-0.098-0.586-0.176-0.872c-0.143-1.802-0.907-3.498-2.16-4.8l-2.4-2.4c-17.694-17.634-44.907-21.468-66.784-9.408   l-66.376,34.72c-0.38,0.197-0.744,0.425-1.088,0.68c-38.4,28.704-42.168,80.264-28.92,119.896l-6.28,14.576   c-6.799,15.881-16.575,30.314-28.8,42.52L16.403,392.221c-21.87,21.87-21.87,57.33,0,79.2s57.33,21.87,79.2,0l0,0l172.728-172.744   c12.218-12.229,26.665-22.005,42.56-28.8l14.4-6.176c13.661,4.624,27.978,7.017,42.4,7.088   c30.214,1.229,59.183-12.113,77.888-35.872c0.258-0.346,0.488-0.713,0.688-1.096l34.504-66.2   C492.974,145.744,489.211,118.43,471.547,100.669L471.547,100.669z M304.579,255.157c-17.764,7.602-33.908,18.534-47.56,32.208   L84.283,460.117c-15.625,15.625-40.959,15.625-56.584,0c-15.625-15.625-15.625-40.959,0-56.584l172.8-172.752   c13.665-13.64,24.592-29.771,32.192-47.52l0.224-0.528c5.373,10.175,12.218,19.502,20.312,27.68l24.44,24.44   c8.08,8.003,17.28,14.788,27.312,20.144L304.579,255.157z M466.715,159.957l-34.312,65.824   c-24.608,32.24-71.472,33.944-104.8,21.832c-14.483-5.128-27.672-13.354-38.648-24.104l-24.456-24.408   c-10.837-11.089-19.1-24.429-24.2-39.072c-12-33.16-10.224-79.84,21.936-104.36l65.968-34.48c14.15-7.836,31.623-6.4,44.304,3.64   l-50.64,50.64c-21.87,21.868-21.872,57.325-0.004,79.196c0.001,0.001,0.003,0.003,0.004,0.004l11.312,11.312   c21.868,21.87,57.325,21.872,79.196,0.004c0.001-0.001,0.003-0.003,0.004-0.004l50.656-50.664   c10.2,12.756,11.655,30.419,3.68,44.672V159.957z" data-original="#231F20" class="active-path" data-old_color="#231F20"/>
	<path style="fill:#F07500" d="M57.299,454.517c-13.255-0.002-23.999-10.748-23.997-24.003   c0.002-13.255,10.748-23.999,24.003-23.997s23.999,10.748,23.997,24.003c-0.001,6.367-2.531,12.473-7.035,16.973   C69.77,451.997,63.664,454.524,57.299,454.517z M57.299,422.517c-4.418-0.001-8.001,3.58-8.002,7.998   c-0.001,4.418,3.58,8.001,7.998,8.002c2.123,0,4.159-0.843,5.659-2.344c3.124-3.125,3.123-8.19-0.002-11.314   C61.453,423.36,59.42,422.517,57.299,422.517z" data-original="#231F20" class="active-path" data-old_color="#231F20"/>
</g></g> </svg>
